<svg id="Layer_1" data-name="Layer 1" xmlns="http://www.w3.org/2000/svg" viewBox="0 0 51.72 50.89"><defs><style>.cls-1{fill:#fff;}</style></defs><title>Courthouse </title><path class="cls-1" d="M44.85,23.34h-38a.67.67,0,0,1-.66-.66v-3.3a.66.66,0,0,1,.66-.65h38a.65.65,0,0,1,.66.65v3.3A.66.66,0,0,1,44.85,23.34ZM7.53,22H44.2V20H7.53Z"/><path class="cls-1" d="M44.85,43.24h-38a.66.66,0,0,1-.66-.66v-3.3a.66.66,0,0,1,.66-.65h38a.65.65,0,0,1,.66.65v3.3A.65.65,0,0,1,44.85,43.24ZM7.53,41.93H44.2v-2H7.53Z"/><path class="cls-1" d="M46,20H5.7a1.52,1.52,0,0,1-.82-2.79l20-12.63a1.84,1.84,0,0,1,1.92,0h0l20,12.61A1.52,1.52,0,0,1,46,20ZM25.86,5.66a.5.5,0,0,0-.26.08l-20,12.62a.2.2,0,0,0,.11.37H46a.2.2,0,0,0,.2-.15.21.21,0,0,0-.09-.24l-20-12.6A.5.5,0,0,0,25.86,5.66Z"/><path class="cls-1" d="M48.05,46.54H3.68A.65.65,0,0,1,3,45.88v-3.3a.65.65,0,0,1,.66-.65H48.05a.65.65,0,0,1,.65.65v3.3A.65.65,0,0,1,48.05,46.54ZM4.33,45.22H47.39v-2H4.33Z"/><path class="cls-1" d="M15.59,39.91H9.11a.66.66,0,0,1-.66-.66V38.16a1.81,1.81,0,0,1,1.33-1.74V25.57a1.81,1.81,0,0,1-1.33-1.74V22.74a.67.67,0,0,1,.66-.66h6.48a.66.66,0,0,1,.66.66v1.09a1.8,1.8,0,0,1-1.33,1.74V36.42a1.8,1.8,0,0,1,1.33,1.74v1.09A.65.65,0,0,1,15.59,39.91ZM9.77,38.6h5.17v-.44a.49.49,0,0,0-.49-.49h-.19a.65.65,0,0,1-.65-.66V25a.66.66,0,0,1,.65-.66h.19a.49.49,0,0,0,.49-.49V23.4H9.77v.43a.49.49,0,0,0,.49.49h.18a.67.67,0,0,1,.66.66V37a.66.66,0,0,1-.66.66h-.18a.49.49,0,0,0-.49.49Z"/><path class="cls-1" d="M24.6,39.91H18.12a.65.65,0,0,1-.66-.66V38.16a1.8,1.8,0,0,1,1.33-1.74V25.57a1.8,1.8,0,0,1-1.33-1.74V22.74a.66.66,0,0,1,.66-.66H24.6a.67.67,0,0,1,.66.66v1.09a1.81,1.81,0,0,1-1.33,1.74V36.42a1.81,1.81,0,0,1,1.33,1.74v1.09A.66.66,0,0,1,24.6,39.91ZM18.77,38.6h5.17v-.44a.49.49,0,0,0-.49-.49h-.18a.66.66,0,0,1-.66-.66V25a.67.67,0,0,1,.66-.66h.18a.49.49,0,0,0,.49-.49V23.4H18.77v.43a.49.49,0,0,0,.49.49h.19a.66.66,0,0,1,.65.66V37a.65.65,0,0,1-.65.66h-.19a.49.49,0,0,0-.49.49Z"/><path class="cls-1" d="M33.61,39.91H27.12a.66.66,0,0,1-.66-.66V38.16a1.81,1.81,0,0,1,1.33-1.74V25.57a1.81,1.81,0,0,1-1.33-1.74V22.74a.67.67,0,0,1,.66-.66h6.49a.66.66,0,0,1,.65.66v1.09a1.8,1.8,0,0,1-1.33,1.74V36.42a1.8,1.8,0,0,1,1.33,1.74v1.09A.65.65,0,0,1,33.61,39.91ZM27.78,38.6H33v-.44a.49.49,0,0,0-.49-.49h-.18a.65.65,0,0,1-.66-.66V25a.66.66,0,0,1,.66-.66h.18a.49.49,0,0,0,.49-.49V23.4H27.78v.43a.49.49,0,0,0,.49.49h.18a.66.66,0,0,1,.66.66V37a.65.65,0,0,1-.66.66h-.18a.49.49,0,0,0-.49.49Z"/><path class="cls-1" d="M42.61,39.91H36.13a.66.66,0,0,1-.66-.66V38.16a1.81,1.81,0,0,1,1.33-1.74V25.57a1.81,1.81,0,0,1-1.33-1.74V22.74a.67.67,0,0,1,.66-.66h6.48a.66.66,0,0,1,.66.66v1.09a1.81,1.81,0,0,1-1.33,1.74V36.42a1.81,1.81,0,0,1,1.33,1.74v1.09A.65.65,0,0,1,42.61,39.91ZM36.79,38.6H42v-.44a.49.49,0,0,0-.49-.49h-.18a.66.66,0,0,1-.66-.66V25a.67.67,0,0,1,.66-.66h.18a.49.49,0,0,0,.49-.49V23.4H36.79v.43a.49.49,0,0,0,.49.49h.18a.67.67,0,0,1,.66.66V37a.66.66,0,0,1-.66.66h-.18a.49.49,0,0,0-.49.49Z"/><path class="cls-1" d="M25.86,16.5A3.14,3.14,0,1,1,29,13.36,3.15,3.15,0,0,1,25.86,16.5Zm0-5a1.83,1.83,0,1,0,1.83,1.82A1.81,1.81,0,0,0,25.86,11.54Z"/></svg>