<svg id="Layer_1" data-name="Layer 1" xmlns="http://www.w3.org/2000/svg" viewBox="0 0 51.72 50.89"><defs><style>.cls-1{fill:rgba(#231f20, 0.05);}</style></defs><title>Logo Icon</title><path class="cls-1" d="M48.12,15a1.66,1.66,0,0,0-1.71,1.56,3.16,3.16,0,0,0,.85,2,2.18,2.18,0,0,1,.58,1.17,1.82,1.82,0,0,1-1.72,1.93c-1.42,0-2.45-1.2-3.65-2.59-.27-.31-.54-.63-.83-.94A21.15,21.15,0,0,0,32,8.07a5.36,5.36,0,0,0,1.19-2.81c0-1.46-.68-2.34-1.82-2.34A1.93,1.93,0,0,0,29.26,4.8a4.81,4.81,0,0,0,.19.94,7.32,7.32,0,0,1,.27,1.35,21.07,21.07,0,1,0,13.85,19.8,20.14,20.14,0,0,0-.19-2.82A7.47,7.47,0,0,0,48,22.12a6.15,6.15,0,0,0,2.29-4.44C50.3,16.34,49.56,15,48.12,15ZM17.63,16.22c1,0,2.18.74,2.18,1.57a.68.68,0,0,1-.25.54l-4.82,5.09a50.69,50.69,0,0,0-4.39,5.19,7,7,0,0,1-.19-2C10.16,21.81,13.42,16.22,17.63,16.22ZM11.16,38.55h0Zm2,1.46-.07,0Zm-.51-.32-.12-.08Zm-.5-.35L12,39.25ZM11.63,39l-.07-.06ZM39.23,16a6.22,6.22,0,0,0-3.17-.85c-3.87,0-9.06,4.08-9.06,8.24a3.59,3.59,0,0,0,3.26,3.93c1,0,2.59-.41,2.59-1.93s-.77-1.59-1.58-1.81a2,2,0,0,1-1.81-2.34A3.53,3.53,0,0,1,33,18c1.37,0,4.13,1.08,4.44,2.14-.17,3.46-.75,8.47-3.89,12A17.33,17.33,0,0,1,20.92,38c-2.37,0-5.74-1-7.58-3.07-.82-.91-1.9-2.28-1.9-3.68,0-1.8.92-2.94,1.9-4.15l2.46-2.92,2-2L28.43,12.05A32.74,32.74,0,0,0,31.29,9,20.19,20.19,0,0,1,39.23,16ZM22.49,46.84a20,20,0,0,1,0-39.9,19.73,19.73,0,0,1,7,1.26c-.65,1.46-2.42,3.19-3.9,4.64-.7.68-1.3,1.27-1.68,1.73a4.6,4.6,0,0,0-3.28-1.17c-3.18,0-6.59,1.89-9.35,5.18a19.55,19.55,0,0,0-3,5,13.53,13.53,0,0,0-1.15,5.14,14.55,14.55,0,0,0,1,5.42,12,12,0,0,0,2.73,4.15A12.88,12.88,0,0,0,20,41.84a17.87,17.87,0,0,0,10.78-3.29,20,20,0,0,0,5.57-6.48,23.13,23.13,0,0,0,2.51-10.84,9.47,9.47,0,0,0,3.36,2.63,20.2,20.2,0,0,1,.23,3A20,20,0,0,1,22.49,46.84Z"/></svg>