<svg id="Layer_1" data-name="Layer 1" xmlns="http://www.w3.org/2000/svg" viewBox="0 0 51.72 50.89"><defs><style>.cls-1{fill:#fff;}</style></defs><title>Hammer</title><path class="cls-1" d="M46.28,40.89h-.57V39.83a2.33,2.33,0,0,0-2.33-2.33H30.18a2.34,2.34,0,0,0-2.34,2.33v1.06h-.57a2.34,2.34,0,0,0-2.33,2.34v1.46A2.34,2.34,0,0,0,27.27,47h19a2.34,2.34,0,0,0,2.34-2.33V43.23A2.34,2.34,0,0,0,46.28,40.89ZM29.16,39.83a1,1,0,0,1,1-1h13.2a1,1,0,0,1,1,1v1.06H29.16ZM47.3,44.69a1,1,0,0,1-1,1h-19a1,1,0,0,1-1-1V43.23a1,1,0,0,1,1-1h19a1,1,0,0,1,1,1Z"/><path class="cls-1" d="M25.61,26.94a.68.68,0,0,0,.47.19.66.66,0,0,0,.46-.19l.59-.59,1.23,1.22-.6.6a.67.67,0,0,0,0,.93l.84.83a4.14,4.14,0,0,0,5.85,0l3.6-3.6a4.15,4.15,0,0,0,0-5.85l-.84-.83a.67.67,0,0,0-.93,0l-.58.58L34.47,19l.58-.59a.64.64,0,0,0,0-.92L25.58,8a.65.65,0,0,0-.93,0l-.58.58L22.82,7.36l.59-.59a.65.65,0,0,0,0-.93l-.77-.76a4.13,4.13,0,0,0-5.84,0l-3.6,3.6a4.12,4.12,0,0,0,0,5.85l.76.76a.66.66,0,0,0,.93,0l.59-.59,1.25,1.24-.59.59a.65.65,0,0,0-.2.47.63.63,0,0,0,.2.46l2.38,2.38L3.93,34.42a2.85,2.85,0,0,0,0,4l.72.71a2.82,2.82,0,0,0,4,0L23.23,24.56Zm11.51-5.53a2.82,2.82,0,0,1,0,4L33.52,29a2.82,2.82,0,0,1-4,0l-.37-.37.59-.59h0l6.41-6.41h0l.59-.59Zm-2.35-.25-5.48,5.48-1.23-1.22,5.48-5.48ZM14.12,13.6a2.84,2.84,0,0,1,0-4L17.73,6a2.8,2.8,0,0,1,4,0l.3.3-.58.58h0l-7,7Zm2.29.17,5.48-5.48,1.25,1.24L17.66,15Zm8.7-4.36L33.66,18l-7.58,7.58L17.53,17ZM7.72,38.21a1.51,1.51,0,0,1-2.14,0l-.72-.71a1.53,1.53,0,0,1,0-2.15L19.45,20.77l2.85,2.86Z"/></svg>