<?xml version="1.0" encoding="utf-8"?>
<!-- Generator: Adobe Illustrator 21.0.2, SVG Export Plug-In . SVG Version: 6.00 Build 0)  -->
<svg version="1.1" id="Layer_1" xmlns="http://www.w3.org/2000/svg" xmlns:xlink="http://www.w3.org/1999/xlink" x="0px" y="0px"
	 viewBox="0 0 318.3 28.7" style="enable-background:new 0 0 318.3 28.7;" xml:space="preserve">
<style type="text/css">
	.st0{fill:#FFFFFF;}
</style>
<title>Wordmark</title>
<g>
	<path class="st0" d="M6.5,12.2H9c2.1,0,3.1,0.6,3.4,2.6l0.4-0.1v-3.2c-2.1,0-4.1,0-6.2,0c-1.4,0-2.9,0-4.3,0v0.6
		c1.7,0.1,2,0.1,2,1.9v9.5c0,2.1-0.2,2.4-2,2.4v0.6c1.6,0,3.2,0,4.8,0c2.1,0,4.3,0,6.4,0c0.2-1.1,0.5-2.2,0.9-3.3l-0.5-0.1
		c-0.8,2.3-1.8,2.6-3.9,2.7H8.7c-2.1,0-2.2-0.6-2.2-3v-3.6h2.3c1.7,0,2.3,0,2.3,2.1h0.4c0-0.7-0.1-1.7-0.1-2.4s0-1.9,0.1-2.4h-0.4
		C11,17,11,18.3,9.3,18.3H6.5C6.5,18.3,6.5,12.2,6.5,12.2z"/>
	<path class="st0" d="M21.4,12.1c1.6,0,1.9,0.5,1.9,2.1v10.2c0,1.5-0.8,1.5-2,1.5v0.6c1.1,0,2.1,0,3.1,0s1.9,0,2.9,0v-0.6
		c-1.2,0-2,0-2-1.5V12.2c0.3,0,0.6-0.1,0.9-0.1c1.4,0,3.5,0.8,3.5,3.8c0,1.5-0.8,3.4-2.7,3.4c-0.3,0-0.5,0-0.8,0V20h1.1
		c2.4,0.1,4.5-1.8,4.7-4.2c0-3.4-3.2-4.3-5.4-4.3c-0.9,0-1.7,0-2.4,0c-1,0-1.9,0-2.9,0v0.6H21.4z"/>
	<path class="st0" d="M39.3,12.1c1.6,0,1.9,0.5,1.9,2.1v10.2c0,1.5-0.8,1.5-2,1.5v0.6c1.1,0,2.1,0,3.1,0s1.9,0,2.9,0v-0.6
		c-1.2,0-2,0-2-1.5V12.2c0.3,0,0.6-0.1,0.9-0.1c1.4,0,3.5,0.8,3.5,3.8c0,1.5-0.8,3.4-2.7,3.4c-0.3,0-0.5,0-0.8,0V20h1.2
		c2.5,0.1,4.5-1.8,4.7-4.2c0-3.4-3.2-4.3-5.4-4.3c-0.9,0-1.7,0-2.4,0c-1,0-1.9,0-2.9,0L39.3,12.1z"/>
	<path class="st0" d="M61.4,12.2h2.5c2.1,0,3.1,0.6,3.4,2.6l0.4-0.1v-3.2c-2.1,0-4.1,0-6.2,0c-1.4,0-2.9,0-4.3,0v0.6
		c1.7,0.1,2,0.1,2,1.9v9.5c0,2.1-0.2,2.4-2,2.4v0.6c1.6,0,3.2,0,4.8,0c2.1,0,4.3,0,6.4,0c0.2-1.1,0.5-2.2,0.9-3.3l-0.5-0.1
		c-0.8,2.3-1.8,2.6-3.9,2.7h-1.3c-2.1,0-2.2-0.6-2.2-3v-3.6h2.3c1.7,0,2.3,0,2.3,2.1h0.4c0-0.7-0.1-1.7-0.1-2.4s0-1.9,0.1-2.4H66
		c-0.1,0.5-0.1,1.8-1.8,1.8h-2.8C61.4,18.3,61.4,12.2,61.4,12.2z"/>
	<path class="st0" d="M82.5,19.4c1.4,2.5,3.1,4.9,4.9,7.1c0.6,0,1.2,0,1.8,0s1.1,0,1.6,0v-0.6c-1,0-1.9-0.5-2.4-1.3
		c-0.9-1-2-2.8-3.9-5.6c1.7-0.4,2.9-1.9,3-3.7c0-1.5-0.9-3.8-5-3.8c-1.4,0-2.1,0-2.9,0c-1.1,0-2.1,0-3.3,0v0.6c1.1,0,2,0,2,1.5v10.9
		c0,1.2-0.9,1.5-2,1.4v0.6c1.1,0,2.1,0,3.1,0s1.9,0,2.9,0v-0.6c-1.1,0-2,0-2-1.5v-5L82.5,19.4z M85.3,15.4c0,1.5-1,3.3-3.7,3.3
		c-0.4,0-0.8,0-1.1-0.1v-6.3c0.4-0.1,0.9-0.1,1.3-0.1C84.3,12.2,85.3,13.6,85.3,15.4L85.3,15.4z"/>
	<path class="st0" d="M109.8,23.2l-0.5-0.1c-0.7,2.1-1.5,2.7-4,2.7c-3,0-3.4-0.7-3.4-2.3v-9.9c0-1.5,0.8-1.5,2-1.5v-0.6
		c-1.1,0-2.1,0-3.1,0s-1.9,0-3,0v0.6c1.1,0,2,0,2,1.5v10.9c0,1.2-0.9,1.5-2,1.4v0.6c1.9,0,3.8,0,5.7,0s3.6,0,5.4,0L109.8,23.2z"/>
	<path class="st0" d="M122.9,18.8l4.1-5.5c0.5-0.6,0.9-1.2,1.8-1.2v-0.6c-0.6,0-1.2,0-1.8,0c-0.8,0-1.6,0-2.5,0v0.6
		c1.1,0,1.5,0,1.5,0.6s-0.6,1.2-0.8,1.5l-2.8,3.9l-3-4.2c-0.3-0.4-0.6-0.8-0.7-1.3c0-0.5,0.9-0.5,1.2-0.5v-0.6c-0.9,0-1.7,0-2.6,0
		s-2.6,0-3,0v0.6c1.3,0.1,1.4,0.1,2,0.9l4.5,6.2v5.2c0,1.5-0.8,1.5-1.9,1.5v0.6c1,0,2,0,3,0s2,0,3.1,0v-0.6c-1.1,0-2,0-2-1.5
		L122.9,18.8z"/>
	<path class="st0" d="M192.2,19.2h2.6c1.9,0,1.9,0.5,2.2,1.9h0.4c0-0.6-0.1-1.6-0.1-2.3s0-1.9,0.1-2.3h-0.5
		c-0.3,1.5-0.4,1.8-2.2,1.8h-2.5v-6.1h2.5c2.3,0,3.2,0.6,3.5,2.4l0.5-0.1l-0.1-3c-1.9,0-3.9,0-5.8,0c-1.6,0-3.1,0-4.7,0v0.6
		c1.7,0.1,2,0.1,2,1.9v9.5c0,2.1-0.2,2.4-2,2.4v0.6c1.1,0,2.1,0,3.1,0s2,0,3,0v-0.6c-1.1,0-1.9,0-1.9-1.5L192.2,19.2z"/>
	<path class="st0" d="M206.6,19.1c0.1,4.3,3.6,7.6,7.9,7.5s7.6-3.6,7.5-7.9c-0.1-4.2-3.5-7.5-7.7-7.5
		C210,11.2,206.5,14.7,206.6,19.1C206.6,19,206.6,19,206.6,19.1z M208.9,18.4c0-3.9,2-6.6,5.1-6.6c3.7,0,5.6,4.4,5.6,7.7
		c0,3.9-2,6.6-5.1,6.6C210.8,26.1,208.9,21.7,208.9,18.4z"/>
	<path class="st0" d="M241.9,23.2l-0.5-0.1c-0.7,2.1-1.5,2.7-4,2.7c-3.1,0-3.4-0.7-3.4-2.3v-9.9c0-1.5,0.8-1.5,2-1.5v-0.6
		c-1.1,0-2.1,0-3.1,0s-1.9,0-3,0v0.6c1.1,0,2,0,2,1.5v10.9c0,1.2-0.9,1.5-2,1.4v0.6c1.9,0,3.8,0,5.7,0s3.6,0,5.4,0L241.9,23.2z"/>
	<path class="st0" d="M261,23.2l-0.5-0.1c-0.7,2.1-1.5,2.7-4,2.7c-3,0-3.4-0.7-3.4-2.3v-9.9c0-1.5,0.8-1.5,2-1.5v-0.6
		c-1.1,0-2.1,0-3,0s-2,0-3,0v0.6c1.1,0,2,0,2,1.5v10.9c0,1.2-0.9,1.5-2,1.4v0.6c1.9,0,3.8,0,5.7,0s3.6,0,5.5,0L261,23.2z"/>
	<path class="st0" d="M269.8,24.4c0,1.5-0.8,1.5-2,1.5v0.6c1.1,0,2.1,0,3.1,0s1.9,0,2.9,0v-0.6c-1.1,0-2,0-2-1.5V13.6
		c0-1.5,0.8-1.5,2-1.5v-0.6c-1.1,0-2.1,0-3,0s-2,0-3,0v0.6c1.1,0,2,0,2,1.5V24.4z"/>
	<path class="st0" d="M281.8,26.1c1,0.5,2.1,0.7,3.3,0.7c2.5,0,5-1.6,5-4.3c0-4.9-6.6-3.9-6.6-7.8c-0.1-1.4,0.9-2.6,2.3-2.7
		c0.1,0,0.2,0,0.3,0c1.4-0.1,2.7,1,2.8,2.4h0.5l-0.3-2.8c-0.9-0.2-1.7-0.3-2.6-0.3c-2.6,0-4.6,1.4-4.6,4.2c0,5.1,6.4,3.9,6.4,7.9
		c0,1.6-1.2,2.8-2.8,2.9h-0.1c-1.8,0-3-1.6-3.4-3.2h-0.5L281.8,26.1z"/>
	<path class="st0" d="M298.1,11.5c0.7,0,0.8,0.2,0.8,0.9v4.2c0,0.6-0.3,0.6-0.8,0.6v0.2h1.3h1.2v-0.2c-0.5,0-0.8,0-0.8-0.6v-5
		c0.1,0,0.3,0,0.4,0c0.8,0,1.4,0.6,1.4,1.4c0,0.1,0,0.1,0,0.2c0,0.6-0.3,1.4-1.1,1.4c-0.1,0-0.2,0-0.3,0v0.2h0.5
		c1,0,1.8-0.8,1.9-1.8c0-1.4-1.3-1.8-2.2-1.8h-1c-0.4,0-0.8,0-1.2,0L298.1,11.5z"/>
	<path class="st0" d="M303.6,17.6c0.3,0,0.6-0.3,0.6-0.6c0-0.3-0.3-0.6-0.6-0.6c-0.3,0-0.6,0.3-0.6,0.6l0,0
		C303,17.3,303.2,17.6,303.6,17.6z"/>
	<path class="st0" d="M313.1,11.6c-0.7-0.3-1.4-0.4-2.1-0.5c-1.8-0.1-3.3,1.3-3.3,3.1c-0.1,1.7,1.2,3.2,2.9,3.3c0.1,0,0.3,0,0.4,0
		c0.7,0,1.3-0.2,1.9-0.5l0.2-1.3h-0.2c-0.1,0.9-0.9,1.5-1.7,1.5c-1.6-0.1-2.7-1.5-2.6-3c-0.2-1.4,0.8-2.6,2.2-2.8c0.1,0,0.2,0,0.3,0
		c0.9-0.1,1.8,0.5,1.9,1.4l0,0h0.2L313.1,11.6z"/>
	<path class="st0" d="M315.6,17.6c0.3,0,0.6-0.3,0.6-0.6c0-0.3-0.3-0.6-0.6-0.6c-0.3,0-0.6,0.3-0.6,0.6l0,0
		C315.1,17.3,315.3,17.6,315.6,17.6z"/>
	<path class="st0" d="M163.1,16.4c0-1.9-2.2-0.4-2.2-2.7c0.1-1.2,1.1-2.2,2.3-2.1c0.9,0,2.7,0.7,2.9,1.4c-0.1,2.7-0.6,5.6-2.5,7.7
		c-2.1,2.3-5,3.7-8.1,3.8c-1.8,0-3.6-0.7-4.9-2c-0.7-0.6-1.1-1.5-1.2-2.4c0.1-1,0.5-2,1.2-2.7l1.6-1.9l1.3-1.3l6.8-6.4
		c0.9-0.9,3-3,3-4.4c0-1-0.5-1.5-1.2-1.5c-0.7-0.1-1.3,0.4-1.3,1.1c0,0,0,0,0,0.1c0,0.3,0.3,1,0.3,1.5c0,1.5-2.9,3.7-3.8,4.8
		c-0.6-0.5-1.3-0.8-2-0.8c-4.4,0-8.7,5.6-8.7,9.8c-0.3,4.4,3.1,8.2,7.5,8.5c0.3,0,0.5,0,0.8,0c4.4,0.1,8.5-2.3,10.5-6.3
		c1.1-2.2,1.7-4.6,1.6-7c0.7,0.8,1.8,1.9,2.9,1.9c2,0,4.5-2,4.5-4.1c0.1-0.9-0.5-1.6-1.4-1.7l0,0c-0.6,0-1.1,0.4-1.1,1
		c0,1,0.9,1.4,0.9,2c0,0.7-0.5,1.2-1.1,1.3l0,0c-2.1,0-2.9-4.1-6.5-4.1c-2.5,0-5.8,2.6-5.8,5.3c-0.1,1.3,0.8,2.4,2,2.5
		c0,0,0,0,0.1,0C162.2,17.7,163.2,17.3,163.1,16.4L163.1,16.4z M153.4,10.5c0.7,0,1.4,0.5,1.4,1c0,0.1-0.1,0.3-0.2,0.4l-3.1,3.3
		c-1,1.1-2,2.2-2.8,3.4c-0.1-0.4-0.2-0.9-0.1-1.3C148.5,14.2,150.6,10.5,153.4,10.5z"/>
	<path class="st0" d="M6.5,12.2H9c2.1,0,3.1,0.6,3.4,2.6l0.4-0.1v-3.2c-2.1,0-4.1,0-6.2,0c-1.4,0-2.9,0-4.3,0v0.6
		c1.7,0.1,2,0.1,2,1.9v9.5c0,2.1-0.2,2.4-2,2.4v0.6c1.6,0,3.2,0,4.8,0c2.1,0,4.3,0,6.4,0c0.2-1.1,0.5-2.2,0.9-3.3l-0.5-0.1
		c-0.8,2.3-1.8,2.6-3.9,2.7H8.7c-2.1,0-2.2-0.6-2.2-3v-3.6h2.3c1.7,0,2.3,0,2.3,2.1h0.4c0-0.7-0.1-1.7-0.1-2.4s0-1.9,0.1-2.4h-0.4
		C11,17,11,18.3,9.3,18.3H6.5C6.5,18.3,6.5,12.2,6.5,12.2z"/>
	<path class="st0" d="M21.4,12.1c1.6,0,1.9,0.5,1.9,2.1v10.2c0,1.5-0.8,1.5-2,1.5v0.6c1.1,0,2.1,0,3.1,0s1.9,0,2.9,0v-0.6
		c-1.2,0-2,0-2-1.5V12.2c0.3,0,0.6-0.1,0.9-0.1c1.4,0,3.5,0.8,3.5,3.8c0,1.5-0.8,3.4-2.7,3.4c-0.3,0-0.5,0-0.8,0V20h1.1
		c2.4,0.1,4.5-1.8,4.7-4.2c0-3.4-3.2-4.3-5.4-4.3c-0.9,0-1.7,0-2.4,0c-1,0-1.9,0-2.9,0v0.6H21.4z"/>
	<path class="st0" d="M39.3,12.1c1.6,0,1.9,0.5,1.9,2.1v10.2c0,1.5-0.8,1.5-2,1.5v0.6c1.1,0,2.1,0,3.1,0s1.9,0,2.9,0v-0.6
		c-1.2,0-2,0-2-1.5V12.2c0.3,0,0.6-0.1,0.9-0.1c1.4,0,3.5,0.8,3.5,3.8c0,1.5-0.8,3.4-2.7,3.4c-0.3,0-0.5,0-0.8,0V20h1.2
		c2.5,0.1,4.5-1.8,4.7-4.2c0-3.4-3.2-4.3-5.4-4.3c-0.9,0-1.7,0-2.4,0c-1,0-1.9,0-2.9,0L39.3,12.1z"/>
	<path class="st0" d="M61.4,12.2h2.5c2.1,0,3.1,0.6,3.4,2.6l0.4-0.1v-3.2c-2.1,0-4.1,0-6.2,0c-1.4,0-2.9,0-4.3,0v0.6
		c1.7,0.1,2,0.1,2,1.9v9.5c0,2.1-0.2,2.4-2,2.4v0.6c1.6,0,3.2,0,4.8,0c2.1,0,4.3,0,6.4,0c0.2-1.1,0.5-2.2,0.9-3.3l-0.5-0.1
		c-0.8,2.3-1.8,2.6-3.9,2.7h-1.3c-2.1,0-2.2-0.6-2.2-3v-3.6h2.3c1.7,0,2.3,0,2.3,2.1h0.4c0-0.7-0.1-1.7-0.1-2.4s0-1.9,0.1-2.4H66
		c-0.1,0.5-0.1,1.8-1.8,1.8h-2.8C61.4,18.3,61.4,12.2,61.4,12.2z"/>
	<path class="st0" d="M82.5,19.4c1.4,2.5,3.1,4.9,4.9,7.1c0.6,0,1.2,0,1.8,0s1.1,0,1.6,0v-0.6c-1,0-1.9-0.5-2.4-1.3
		c-0.9-1-2-2.8-3.9-5.6c1.7-0.4,2.9-1.9,3-3.7c0-1.5-0.9-3.8-5-3.8c-1.4,0-2.1,0-2.9,0c-1.1,0-2.1,0-3.3,0v0.6c1.1,0,2,0,2,1.5v10.9
		c0,1.2-0.9,1.5-2,1.4v0.6c1.1,0,2.1,0,3.1,0s1.9,0,2.9,0v-0.6c-1.1,0-2,0-2-1.5v-5L82.5,19.4z M85.3,15.4c0,1.5-1,3.3-3.7,3.3
		c-0.4,0-0.8,0-1.1-0.1v-6.3c0.4-0.1,0.9-0.1,1.3-0.1C84.3,12.2,85.3,13.6,85.3,15.4L85.3,15.4z"/>
	<path class="st0" d="M109.8,23.2l-0.5-0.1c-0.7,2.1-1.5,2.7-4,2.7c-3,0-3.4-0.7-3.4-2.3v-9.9c0-1.5,0.8-1.5,2-1.5v-0.6
		c-1.1,0-2.1,0-3.1,0s-1.9,0-3,0v0.6c1.1,0,2,0,2,1.5v10.9c0,1.2-0.9,1.5-2,1.4v0.6c1.9,0,3.8,0,5.7,0s3.6,0,5.4,0L109.8,23.2z"/>
	<path class="st0" d="M122.9,18.8l4.1-5.5c0.5-0.6,0.9-1.2,1.8-1.2v-0.6c-0.6,0-1.2,0-1.8,0c-0.8,0-1.6,0-2.5,0v0.6
		c1.1,0,1.5,0,1.5,0.6s-0.6,1.2-0.8,1.5l-2.8,3.9l-3-4.2c-0.3-0.4-0.6-0.8-0.7-1.3c0-0.5,0.9-0.5,1.2-0.5v-0.6c-0.9,0-1.7,0-2.6,0
		s-2.6,0-3,0v0.6c1.3,0.1,1.4,0.1,2,0.9l4.5,6.2v5.2c0,1.5-0.8,1.5-1.9,1.5v0.6c1,0,2,0,3,0s2,0,3.1,0v-0.6c-1.1,0-2,0-2-1.5
		L122.9,18.8z"/>
	<path class="st0" d="M192.2,19.2h2.6c1.9,0,1.9,0.5,2.2,1.9h0.4c0-0.6-0.1-1.6-0.1-2.3s0-1.9,0.1-2.3h-0.5
		c-0.3,1.5-0.4,1.8-2.2,1.8h-2.5v-6.1h2.5c2.3,0,3.2,0.6,3.5,2.4l0.5-0.1l-0.1-3c-1.9,0-3.9,0-5.8,0c-1.6,0-3.1,0-4.7,0v0.6
		c1.7,0.1,2,0.1,2,1.9v9.5c0,2.1-0.2,2.4-2,2.4v0.6c1.1,0,2.1,0,3.1,0s2,0,3,0v-0.6c-1.1,0-1.9,0-1.9-1.5L192.2,19.2z"/>
	<path class="st0" d="M206.6,19.1c0.1,4.3,3.6,7.6,7.9,7.5s7.6-3.6,7.5-7.9c-0.1-4.2-3.5-7.5-7.7-7.5
		C210,11.2,206.5,14.7,206.6,19.1C206.6,19,206.6,19,206.6,19.1z M208.9,18.4c0-3.9,2-6.6,5.1-6.6c3.7,0,5.6,4.4,5.6,7.7
		c0,3.9-2,6.6-5.1,6.6C210.8,26.1,208.9,21.7,208.9,18.4z"/>
	<path class="st0" d="M241.9,23.2l-0.5-0.1c-0.7,2.1-1.5,2.7-4,2.7c-3.1,0-3.4-0.7-3.4-2.3v-9.9c0-1.5,0.8-1.5,2-1.5v-0.6
		c-1.1,0-2.1,0-3.1,0s-1.9,0-3,0v0.6c1.1,0,2,0,2,1.5v10.9c0,1.2-0.9,1.5-2,1.4v0.6c1.9,0,3.8,0,5.7,0s3.6,0,5.4,0L241.9,23.2z"/>
	<path class="st0" d="M261,23.2l-0.5-0.1c-0.7,2.1-1.5,2.7-4,2.7c-3,0-3.4-0.7-3.4-2.3v-9.9c0-1.5,0.8-1.5,2-1.5v-0.6
		c-1.1,0-2.1,0-3,0s-2,0-3,0v0.6c1.1,0,2,0,2,1.5v10.9c0,1.2-0.9,1.5-2,1.4v0.6c1.9,0,3.8,0,5.7,0s3.6,0,5.5,0L261,23.2z"/>
	<path class="st0" d="M269.8,24.4c0,1.5-0.8,1.5-2,1.5v0.6c1.1,0,2.1,0,3.1,0s1.9,0,2.9,0v-0.6c-1.1,0-2,0-2-1.5V13.6
		c0-1.5,0.8-1.5,2-1.5v-0.6c-1.1,0-2.1,0-3,0s-2,0-3,0v0.6c1.1,0,2,0,2,1.5V24.4z"/>
	<path class="st0" d="M281.8,26.1c1,0.5,2.1,0.7,3.3,0.7c2.5,0,5-1.6,5-4.3c0-4.9-6.6-3.9-6.6-7.8c-0.1-1.4,0.9-2.6,2.3-2.7
		c0.1,0,0.2,0,0.3,0c1.4-0.1,2.7,1,2.8,2.4h0.5l-0.3-2.8c-0.9-0.2-1.7-0.3-2.6-0.3c-2.6,0-4.6,1.4-4.6,4.2c0,5.1,6.4,3.9,6.4,7.9
		c0,1.6-1.2,2.8-2.8,2.9h-0.1c-1.8,0-3-1.6-3.4-3.2h-0.5L281.8,26.1z"/>
	<path class="st0" d="M163.1,16.4c0-1.9-2.2-0.4-2.2-2.7c0.1-1.2,1.1-2.2,2.3-2.1c0.9,0,2.7,0.7,2.9,1.4c-0.1,2.7-0.6,5.6-2.5,7.7
		c-2.1,2.3-5,3.7-8.1,3.8c-1.8,0-3.6-0.7-4.9-2c-0.7-0.6-1.1-1.5-1.2-2.4c0.1-1,0.5-2,1.2-2.7l1.6-1.9l1.3-1.3l6.8-6.4
		c0.9-0.9,3-3,3-4.4c0-1-0.5-1.5-1.2-1.5c-0.7-0.1-1.3,0.4-1.3,1.1c0,0,0,0,0,0.1c0,0.3,0.3,1,0.3,1.5c0,1.5-2.9,3.7-3.8,4.8
		c-0.6-0.5-1.3-0.8-2-0.8c-4.4,0-8.7,5.6-8.7,9.8c-0.3,4.4,3.1,8.2,7.5,8.5c0.3,0,0.5,0,0.8,0c4.4,0.1,8.5-2.3,10.5-6.3
		c1.1-2.2,1.7-4.6,1.6-7c0.7,0.8,1.8,1.9,2.9,1.9c2,0,4.5-2,4.5-4.1c0.1-0.9-0.5-1.6-1.4-1.7l0,0c-0.6,0-1.1,0.4-1.1,1
		c0,1,0.9,1.4,0.9,2c0,0.7-0.5,1.2-1.1,1.3l0,0c-2.1,0-2.9-4.1-6.5-4.1c-2.5,0-5.8,2.6-5.8,5.3c-0.1,1.3,0.8,2.4,2,2.5
		c0,0,0,0,0.1,0C162.2,17.7,163.2,17.3,163.1,16.4L163.1,16.4z M153.4,10.5c0.7,0,1.4,0.5,1.4,1c0,0.1-0.1,0.3-0.2,0.4l-3.1,3.3
		c-1,1.1-2,2.2-2.8,3.4c-0.1-0.4-0.2-0.9-0.1-1.3C148.5,14.2,150.6,10.5,153.4,10.5z"/>
</g>
</svg>
