<svg id="Layer_1" data-name="Layer 1" xmlns="http://www.w3.org/2000/svg" viewBox="0 0 51.72 50.89"><defs><style>.cls-1{fill:#fff;}</style></defs><title>Phone</title><path class="cls-1" d="M37.9,27.34h0a.8.8,0,0,1-.8-.8A12.51,12.51,0,0,0,24.75,14a.8.8,0,1,1,0-1.6,14,14,0,0,1,12.52,8,13.81,13.81,0,0,1,1.41,6.14A.8.8,0,0,1,37.9,27.34Z"/><path class="cls-1" d="M45.56,27.34a.8.8,0,0,1-.8-.8,20.17,20.17,0,0,0-20-20.15.81.81,0,0,1-.8-.81.8.8,0,0,1,.81-.8A21.78,21.78,0,0,1,46.36,26.54.8.8,0,0,1,45.56,27.34Z"/><path class="cls-1" d="M37,48.89c-6.68,0-15.09-6.28-21.67-13.34C11.2,31.18-1.56,16.24,5.64,7.77L7.23,5.82a3.35,3.35,0,0,1,5.06-.17L18,11.76A3.27,3.27,0,0,1,18.15,16l-2.6,3.48c.23.67,1.38,3.21,7,9.28s8.05,7.34,8.78,7.65L35,34a3.24,3.24,0,0,1,4.18.47l5.7,6.11a3.34,3.34,0,0,1-.52,5l-2.07,1.46A8.46,8.46,0,0,1,37,48.89ZM9.83,6.19H9.77a1.78,1.78,0,0,0-1.3.64l-1.59,2c-5,5.94,1.64,17.15,9.58,25.67S35.27,50.59,41.37,45.82l2.09-1.48a1.73,1.73,0,0,0,.74-1.25,1.78,1.78,0,0,0-.46-1.38L38,35.6a1.64,1.64,0,0,0-2.12-.22l-4,2.57a.76.76,0,0,1-.51.12c-.43,0-2.9-.62-10-8.23S13.89,19.7,13.89,19.28a.75.75,0,0,1,.16-.48L16.88,15a1.65,1.65,0,0,0-.07-2.15l-5.7-6.11A1.75,1.75,0,0,0,9.83,6.19Z"/></svg>