<svg id="Layer_1" data-name="Layer 1" xmlns="http://www.w3.org/2000/svg" viewBox="0 0 51.72 50.89"><defs><style>.cls-1{fill:#fff;}</style></defs><title>Search Icon</title><path class="cls-1" d="M34.59,31.6,47.16,44.17,43.37,48,30.8,35.4v-2l-.71-.71a16,16,0,0,1-10.67,3.91,15.91,15.91,0,0,1-11.68-4.8,15.82,15.82,0,0,1-4.8-11.62A15.82,15.82,0,0,1,7.74,8.55a15.84,15.84,0,0,1,11.62-4.8A15.82,15.82,0,0,1,31,8.55a15.89,15.89,0,0,1,4.8,11.67,16,16,0,0,1-3.91,10.67l.71.71ZM11.36,28.29a11,11,0,0,0,8.06,3.31,11,11,0,0,0,8.06-3.31,11,11,0,0,0,3.32-8.07,11,11,0,0,0-3.32-8.06,11,11,0,0,0-8.06-3.32,11,11,0,0,0-8.06,3.32A11,11,0,0,0,8,20.22,11,11,0,0,0,11.36,28.29Z"/></svg>