<svg id="Layer_1" data-name="Layer 1" xmlns="http://www.w3.org/2000/svg" viewBox="0 0 51.72 50.89"><defs><style>.cls-1{fill:#fff;}</style></defs><title>Document</title><path class="cls-1" d="M29.23,37.74a1.06,1.06,0,0,1-.34-.06,1.7,1.7,0,0,1-.94-1,2,2,0,0,0-.22-.38,2.24,2.24,0,0,0-.42-.08A1.67,1.67,0,0,1,26,35.61a1.7,1.7,0,0,1-.15-1.38,2.94,2.94,0,0,0,.05-.44,1.91,1.91,0,0,0-.29-.3,1.78,1.78,0,0,1-.7-1.23,1.78,1.78,0,0,1,.7-1.23,1.9,1.9,0,0,0,.29-.31,3,3,0,0,0-.05-.43A1.7,1.7,0,0,1,26,28.91a1.67,1.67,0,0,1,1.27-.57,1.77,1.77,0,0,0,.43-.09,1.7,1.7,0,0,0,.2-.37,1.8,1.8,0,0,1,.95-1.05,1.75,1.75,0,0,1,1.35.29,2,2,0,0,0,.41.19,2.06,2.06,0,0,0,.42-.19,1.71,1.71,0,0,1,1.34-.29,1.8,1.8,0,0,1,1,1.05,2.07,2.07,0,0,0,.21.38,2.24,2.24,0,0,0,.42.08,1.69,1.69,0,0,1,1.28.57,1.74,1.74,0,0,1,.15,1.38,2,2,0,0,0-.06.44,3.73,3.73,0,0,0,.29.3,1.74,1.74,0,0,1,.7,1.23,1.74,1.74,0,0,1-.7,1.23,1.94,1.94,0,0,0-.29.31,2.16,2.16,0,0,0,.06.43,1.7,1.7,0,0,1-.16,1.38,1.65,1.65,0,0,1-1.27.57,1.77,1.77,0,0,0-.43.09,2.29,2.29,0,0,0-.2.37,1.75,1.75,0,0,1-1,1,1.67,1.67,0,0,1-1.34-.28,2.06,2.06,0,0,0-.42-.19,2,2,0,0,0-.41.19A2.13,2.13,0,0,1,29.23,37.74Zm1.42-1.83a2.11,2.11,0,0,1,1,.35l.33.16a3.59,3.59,0,0,0,.17-.34,2.26,2.26,0,0,1,.62-.87,2.3,2.3,0,0,1,1-.32,2.2,2.2,0,0,0,.37-.06c0-.1,0-.26-.06-.37a2.15,2.15,0,0,1,0-1.07,2,2,0,0,1,.62-.84,2.51,2.51,0,0,0,.28-.29,2.51,2.51,0,0,0-.28-.29,2,2,0,0,1-.62-.84h0a2.19,2.19,0,0,1,0-1.08c0-.1,0-.26.06-.36a2.2,2.2,0,0,0-.37-.06,2.19,2.19,0,0,1-1-.33,2.15,2.15,0,0,1-.62-.86A3.59,3.59,0,0,0,32,28.1l-.33.16a2.22,2.22,0,0,1-1,.35,2.22,2.22,0,0,1-1-.35l-.32-.16a3.65,3.65,0,0,0-.18.34,2.13,2.13,0,0,1-.61.86,2.23,2.23,0,0,1-1,.33,2,2,0,0,0-.37.06,2.23,2.23,0,0,0,.05.36,2.19,2.19,0,0,1,0,1.08,2.07,2.07,0,0,1-.63.84,3.76,3.76,0,0,0-.28.29,3.76,3.76,0,0,0,.28.29,2.07,2.07,0,0,1,.63.84,2.15,2.15,0,0,1,0,1.07,2.52,2.52,0,0,0-.05.37,2,2,0,0,0,.37.06,2.34,2.34,0,0,1,1,.32,2.23,2.23,0,0,1,.61.87,3.65,3.65,0,0,0,.18.34l.32-.16A2.11,2.11,0,0,1,30.65,35.91Z"/><path class="cls-1" d="M30.65,34.59A2.33,2.33,0,1,1,33,32.26,2.33,2.33,0,0,1,30.65,34.59Zm0-3.36a1,1,0,1,0,1,1A1,1,0,0,0,30.65,31.23Z"/><path class="cls-1" d="M35.38,17.13H13.89a.65.65,0,1,1,0-1.3H35.38a.65.65,0,0,1,0,1.3Z"/><path class="cls-1" d="M35.38,14.09H13.89a.65.65,0,0,1,0-1.3H35.38a.65.65,0,0,1,0,1.3Z"/><path class="cls-1" d="M35.38,20.11H13.89a.65.65,0,0,1-.65-.65.66.66,0,0,1,.65-.66H35.38a.66.66,0,0,1,.65.66A.65.65,0,0,1,35.38,20.11Z"/><path class="cls-1" d="M27.46,23.07H13.82a.65.65,0,0,1,0-1.3H27.46a.65.65,0,1,1,0,1.3Z"/><path class="cls-1" d="M22.12,31.29H13.67a.65.65,0,0,1,0-1.3h8.45a.65.65,0,1,1,0,1.3Z"/><path class="cls-1" d="M22.12,34.24H13.67a.65.65,0,0,1-.65-.65.66.66,0,0,1,.65-.66h8.45a.66.66,0,0,1,.65.66A.65.65,0,0,1,22.12,34.24Z"/><path class="cls-1" d="M19.35,37.21H13.67a.65.65,0,0,1,0-1.3h5.68a.65.65,0,1,1,0,1.3Z"/><path class="cls-1" d="M40.21,48.11H9.06a.65.65,0,0,1-.65-.65V5.88a.65.65,0,0,1,.65-.65H40.21a.65.65,0,0,1,.65.65V47.46A.65.65,0,0,1,40.21,48.11ZM9.71,46.8H39.56V6.53H9.71Z"/><path class="cls-1" d="M42.66,45.66H40.35a.65.65,0,0,1,0-1.3H42V4.08H12.16V5.79a.65.65,0,0,1-1.3,0V3.43a.65.65,0,0,1,.65-.65H42.66a.65.65,0,0,1,.65.65V45A.65.65,0,0,1,42.66,45.66Z"/><path class="cls-1" d="M28.56,43.46a.67.67,0,0,1-.42-.16l-1.09-.92-1.83.27a.66.66,0,0,1-.67-.95l2-3.93a.66.66,0,0,1,.88-.28.65.65,0,0,1,.28.88l-1.45,2.8.86-.12a.63.63,0,0,1,.51.14l.48.41.58-2.9A.65.65,0,1,1,30,39l-.8,4a.64.64,0,0,1-.42.49A.78.78,0,0,1,28.56,43.46Z"/><path class="cls-1" d="M32.64,43.46a.78.78,0,0,1-.21,0,.67.67,0,0,1-.43-.49l-.79-4a.65.65,0,1,1,1.28-.26l.57,2.9.48-.41a.65.65,0,0,1,.52-.14l.86.12-1.45-2.8a.65.65,0,0,1,.27-.88.66.66,0,0,1,.88.28l2,3.93a.66.66,0,0,1,0,.68.64.64,0,0,1-.63.27l-1.82-.27-1.1.92A.67.67,0,0,1,32.64,43.46Z"/></svg>