<svg id="Layer_1" data-name="Layer 1" xmlns="http://www.w3.org/2000/svg" viewBox="0 0 51.72 50.89"><defs><style>.cls-1{fill:#fff;}</style></defs><title>Email</title><path class="cls-1" d="M44.18,40.18H7.54a3.42,3.42,0,0,1-3.42-3.41V14.12A3.42,3.42,0,0,1,7.54,10.7H44.18a3.42,3.42,0,0,1,3.42,3.42V36.77A3.42,3.42,0,0,1,44.18,40.18Zm-36.64-28A1.94,1.94,0,0,0,5.6,14.12V36.77A1.94,1.94,0,0,0,7.54,38.7H44.18a1.94,1.94,0,0,0,1.94-1.93V14.12a1.94,1.94,0,0,0-1.94-1.93Z"/><path class="cls-1" d="M25.86,29.55a.79.79,0,0,1-.41-.13L4.8,15.73a.74.74,0,0,1-.21-1,.75.75,0,0,1,1-.21L25.86,27.91,46.1,14.49a.75.75,0,0,1,1,.21.74.74,0,0,1-.21,1L26.27,29.42A.76.76,0,0,1,25.86,29.55Z"/></svg>