<svg id="Layer_1" data-name="Layer 1" xmlns="http://www.w3.org/2000/svg" viewBox="0 0 51.72 50.89"><defs><style>.cls-1{fill:#2e5b73;}.cls-2{fill:#fff;}.cls-3{fill:#172e3a;fill-rule:evenodd;}</style></defs><title>Featured Icon</title><rect class="cls-1" x="9.28" y="2.81" width="33.17" height="41.59" transform="translate(2.26 49.47) rotate(-90)"/><path class="cls-2" d="M40.91,18.27a.82.82,0,0,0-.85.77,1.58,1.58,0,0,0,.42,1,1,1,0,0,1,.29.58.9.9,0,0,1-.85,1c-.69,0-1.2-.59-1.79-1.27-.13-.16-.27-.31-.41-.47A10.4,10.4,0,0,0,33,14.87a2.71,2.71,0,0,0,.58-1.39c0-.71-.34-1.14-.9-1.14a.94.94,0,0,0-1,.92,2.25,2.25,0,0,0,.09.46,3.56,3.56,0,0,1,.14.66,10.49,10.49,0,0,0-3.56-.62,10.34,10.34,0,1,0,10.28,9,3.67,3.67,0,0,0,2.27-1A3,3,0,0,0,42,19.6,1.19,1.19,0,0,0,40.91,18.27Zm-15,.61c.47,0,1.07.36,1.07.77a.36.36,0,0,1-.12.27l-2.37,2.5A24.41,24.41,0,0,0,22.33,25a3.24,3.24,0,0,1-.1-1C22.23,21.63,23.84,18.88,25.91,18.88Zm-3.18,11h0Zm1,.72,0,0Zm-.25-.16-.05,0Zm-.24-.17-.06,0ZM23,30.06l0,0ZM36.53,18.79A3,3,0,0,0,35,18.37c-1.9,0-4.45,2-4.45,4.05a1.77,1.77,0,0,0,1.6,1.94c.47,0,1.28-.2,1.28-.95s-.38-.78-.78-.89-.89-.25-.89-1.16a1.73,1.73,0,0,1,1.75-1.6c.68,0,2,.53,2.19,1-.08,1.7-.37,4.17-1.92,5.9a8.52,8.52,0,0,1-6.23,2.87,5.26,5.26,0,0,1-3.72-1.51,3,3,0,0,1-.94-1.81,3.1,3.1,0,0,1,.94-2L25,22.79l1-1,5.23-5a19.9,19.9,0,0,0,1.41-1.51A9.82,9.82,0,0,1,36.53,18.79ZM28.3,33.94a9.82,9.82,0,1,1,3.43-19,9.28,9.28,0,0,1-1.92,2.28c-.34.34-.64.63-.82.85a2.31,2.31,0,0,0-1.62-.57A6.35,6.35,0,0,0,22.77,20a9.87,9.87,0,0,0-1.49,2.43A6.64,6.64,0,0,0,20.72,25a7.08,7.08,0,0,0,.49,2.67,5.89,5.89,0,0,0,1.34,2,6.34,6.34,0,0,0,4.52,1.77,8.8,8.8,0,0,0,5.3-1.62,9.73,9.73,0,0,0,2.74-3.19,11.37,11.37,0,0,0,1.24-5.33A4.51,4.51,0,0,0,38,22.64a9,9,0,0,1,.11,1.48A9.82,9.82,0,0,1,28.3,33.94Z"/><polygon class="cls-3" points="5.07 40.19 9.18 43.87 9.18 40.19 5.07 40.19"/></svg>