<svg id="Layer_1" data-name="Layer 1" xmlns="http://www.w3.org/2000/svg" viewBox="0 0 51.72 50.89"><defs><style>.cls-1{fill:#fff;}</style></defs><title>Handshake</title><path class="cls-1" d="M13.54,30.44a.6.6,0,0,1-.22,0L7.05,28a.63.63,0,0,1-.39-.72L9.42,14.92a.62.62,0,0,1,.28-.39.6.6,0,0,1,.47-.08l3.58.84a1.51,1.51,0,0,0,1.06-.16l5.28-3A2.75,2.75,0,0,1,22.57,12L24,12.7a.63.63,0,0,1,.05,1.11l-3.3,1.95a.72.72,0,0,0-.35.45L19,21.37a1,1,0,0,0,.63,1.24l.84.31a1,1,0,0,0,.83-.05,1,1,0,0,0,.53-.65l1-3.89a2,2,0,0,1,1-1.26L26,16a.62.62,0,1,1,.58,1.1l-2.1,1.11a.81.81,0,0,0-.39.48l-1,3.89a2.28,2.28,0,0,1-3,1.55l-.83-.31A2.27,2.27,0,0,1,17.78,21l1.41-5.16a2,2,0,0,1,.92-1.2l2.29-1.34-.35-.16a1.49,1.49,0,0,0-1.35.05l-5.28,3a2.76,2.76,0,0,1-1.95.28l-3-.7L8,27.05l5.76,2.18a.62.62,0,0,1-.22,1.21Z"/><path class="cls-1" d="M36.49,31a.68.68,0,0,1-.31-.08.62.62,0,0,1-.23-.85l1.4-2.47L30.5,23.71a.62.62,0,0,1-.23-.85.61.61,0,0,1,.85-.23l7.39,4.21a.62.62,0,0,1,.23.85L37,30.7A.64.64,0,0,1,36.49,31Z"/><path class="cls-1" d="M38.19,28.05a.58.58,0,0,1-.31-.08.62.62,0,0,1-.23-.85l1.07-1.89a.68.68,0,0,0-.25-.92L25.93,17.05A.62.62,0,1,1,26.55,16L39.1,23.23a1.93,1.93,0,0,1,.7,2.62l-1.07,1.89A.62.62,0,0,1,38.19,28.05Z"/><path class="cls-1" d="M34.77,34a.6.6,0,0,1-.31-.08.62.62,0,0,1-.23-.85l1.4-2.47-6.84-3.91a.62.62,0,1,1,.61-1.08l7.39,4.22a.62.62,0,0,1,.24.85l-1.72,3A.61.61,0,0,1,34.77,34Z"/><path class="cls-1" d="M32.57,36.57a1.89,1.89,0,0,1-.95-.26l-4.37-2.52a.61.61,0,0,1-.23-.85.62.62,0,0,1,.85-.23l4.37,2.52a.7.7,0,0,0,.51.07.66.66,0,0,0,.41-.32l.76-1.34-6.85-3.9a.63.63,0,0,1,.62-1.09l7.39,4.22a.62.62,0,0,1,.23.85l-1.06,1.87a1.94,1.94,0,0,1-1.17.91A1.79,1.79,0,0,1,32.57,36.57Z"/><path class="cls-1" d="M23.43,39.77a2,2,0,0,1-1-.26h0l-1.85-1a.6.6,0,0,1-.29-.37.67.67,0,0,1,.06-.48L24,31.23a.63.63,0,0,1,.85-.23l3,1.71a.66.66,0,0,1,.29.38.64.64,0,0,1-.06.47l-3,5.22A2,2,0,0,1,24,39.7,1.86,1.86,0,0,1,23.43,39.77Zm-.35-1.34a.71.71,0,0,0,1-.27l2.66-4.67-1.93-1.1-3,5.3Z"/><path class="cls-1" d="M20.92,38.54a.65.65,0,0,1-.31-.08l-3-1.71a.62.62,0,0,1-.24-.85l3-5.28a1.88,1.88,0,0,1,2.57-.71L24.85,31a.6.6,0,0,1,.29.37.62.62,0,0,1-.06.48l-3.62,6.37a.63.63,0,0,1-.38.3ZM18.75,36l1.93,1.1,3-5.3L22.32,31a.69.69,0,0,0-.49-.06.67.67,0,0,0-.38.3Z"/><path class="cls-1" d="M17.89,36.82a.68.68,0,0,1-.31-.08l-3-1.72a.61.61,0,0,1-.3-.37.67.67,0,0,1,.06-.48l2.28-4a1.89,1.89,0,0,1,2.57-.71l1.91,1.09a.62.62,0,0,1,.24.85l-2.9,5.1A.64.64,0,0,1,17.89,36.82Zm-2.16-2.57,1.92,1.09,2.29-4-1.38-.78a.63.63,0,0,0-.87.24Z"/><path class="cls-1" d="M14.88,35.1a.71.71,0,0,1-.31-.08L12.72,34A2,2,0,0,1,12,31.29l1-1.75a1.9,1.9,0,0,1,2.58-.71l1.91,1.09a.6.6,0,0,1,.29.37.58.58,0,0,1-.06.48l-2.28,4A.62.62,0,0,1,14.88,35.1Zm-.25-5.27-.17,0a.66.66,0,0,0-.39.3l-1,1.76a.72.72,0,0,0,.27,1l1.31.74,1.66-2.93-1.37-.78A.71.71,0,0,0,14.63,29.83Z"/><path class="cls-1" d="M37.07,30a.62.62,0,0,1-.13-1.23l6.8-1.51L41.32,16l-5.18,1a2.74,2.74,0,0,1-1.9-.32l-6.69-3.94a1.51,1.51,0,0,0-1.47,0l-2,1.12a.62.62,0,0,1-.85-.24.64.64,0,0,1,.25-.85l2-1.12a2.74,2.74,0,0,1,2.7,0l6.69,3.93a1.49,1.49,0,0,0,1,.18l5.79-1.11a.63.63,0,0,1,.72.48L45.09,27.6a.63.63,0,0,1-.48.74L37.21,30Z"/><path class="cls-1" d="M45,30.69a.62.62,0,0,1-.6-.49L40.69,13.13a.62.62,0,0,1,.48-.74l4.75-1a.65.65,0,0,1,.47.09.68.68,0,0,1,.27.39l3.66,17.07a.65.65,0,0,1-.08.47.7.7,0,0,1-.4.27l-4.74,1ZM42,13.48l3.4,15.85L49,28.57l-3.4-15.85Z"/><path class="cls-1" d="M6.76,30.45H6.63l-4.75-1a.63.63,0,0,1-.48-.74L5.07,11.61a.6.6,0,0,1,.27-.39.64.64,0,0,1,.47-.09l4.74,1a.62.62,0,0,1,.48.74L7.37,30a.64.64,0,0,1-.27.39A.61.61,0,0,1,6.76,30.45Zm-4-2.12,3.53.76,3.4-15.85-3.53-.76Z"/></svg>