<svg id="Layer_1" data-name="Layer 1" xmlns="http://www.w3.org/2000/svg" viewBox="0 0 51.72 50.89"><defs><style>.cls-1{fill:#030303;}</style></defs><title>Justice Scale</title><path class="cls-1" d="M47.33,27.58H46.15l-4.53-13h1.8A.6.6,0,0,0,44,14V11.77a.6.6,0,0,0-.6-.6H27.77l0-1.45a3.46,3.46,0,0,0,.88-2.34,3.05,3.05,0,0,0-2.83-3.23A3.05,3.05,0,0,0,23,7.38a3.5,3.5,0,0,0,.87,2.34l0,1.45H8.16a.6.6,0,0,0-.6.6V14a.6.6,0,0,0,.6.6h1.95l-4.54,13H4.4a.6.6,0,0,0-.6.6,7.12,7.12,0,0,0,14.24,0,.6.6,0,0,0-.59-.6H16.27l-4.54-13h12l-.36,25.22H21.77a.58.58,0,0,0-.59.59v2.05H13.07a.6.6,0,0,0-.6.6v3.12a.6.6,0,0,0,.6.6H38.51a.6.6,0,0,0,.6-.6V43a.6.6,0,0,0-.6-.6H30.4V40.37a.58.58,0,0,0-.59-.59H28.17l-.36-25.22H40l-4.53,13H34.28a.6.6,0,0,0-.6.6,7.12,7.12,0,0,0,14.24,0A.59.59,0,0,0,47.33,27.58ZM10.92,34.11A5.94,5.94,0,0,1,5,28.77h11.8A5.94,5.94,0,0,1,10.92,34.11ZM6.84,27.58l4.08-11.73L15,27.58Zm31.08,18H13.66V43.61H37.92Zm-8.71-3.13H22.37V41h6.84Zm-2-29.05a.61.61,0,0,0-.43.17.63.63,0,0,0-.17.43L27,39.78H24.6L25,14a.63.63,0,0,0-.17-.43.61.61,0,0,0-.43-.17H8.76v-1H24.4a.6.6,0,0,0,.6-.59l0-2.29a.59.59,0,0,0-.2-.45,2.27,2.27,0,0,1-.68-1.65,1.88,1.88,0,0,1,1.64-2,1.87,1.87,0,0,1,1.63,2A2.23,2.23,0,0,1,26.74,9a.58.58,0,0,0-.19.45l0,2.29a.6.6,0,0,0,.6.59H42.82v1ZM40.8,15.85l4.08,11.73H36.72Zm0,18.26a5.94,5.94,0,0,1-5.9-5.34H46.7A5.94,5.94,0,0,1,40.8,34.11Z"/></svg>