<?xml version="1.0" encoding="utf-8"?>
<!-- Generator: Adobe Illustrator 23.0.3, SVG Export Plug-In . SVG Version: 6.00 Build 0)  -->
<svg version="1.1" id="Layer_1" xmlns="http://www.w3.org/2000/svg" xmlns:xlink="http://www.w3.org/1999/xlink" x="0px" y="0px"
	 viewBox="0 0 344 53.3" style="enable-background:new 0 0 344 53.3;" xml:space="preserve">
<style type="text/css">
	.st0{fill-rule:evenodd;clip-rule:evenodd;fill:#FFFFFF;}
</style>
<title>Wordmark</title>
<g>
	<path class="st0" d="M19.2,24.4h2.5c2.1,0,3.1,0.6,3.4,2.6l0.4-0.1v-3.2c-2.1,0-4.1,0-6.2,0c-1.4,0-2.9,0-4.3,0v0.6
		c1.7,0.1,2,0.1,2,1.9v9.5c0,2.1-0.2,2.4-2,2.4v0.6c1.6,0,3.2,0,4.8,0c2.1,0,4.3,0,6.4,0c0.2-1.1,0.5-2.2,0.9-3.3l-0.5-0.1
		c-0.8,2.3-1.8,2.6-3.9,2.7h-1.3c-2.1,0-2.2-0.6-2.2-3v-3.6h2.3c1.7,0,2.3,0,2.3,2.1h0.4c0-0.7-0.1-1.7-0.1-2.4s0-1.9,0.1-2.4h-0.4
		c-0.1,0.5-0.1,1.8-1.8,1.8h-2.8V24.4z"/>
	<path class="st0" d="M34.1,24.3c1.6,0,1.9,0.5,1.9,2.1v10.2c0,1.5-0.8,1.5-2,1.5v0.6c1.1,0,2.1,0,3.1,0s1.9,0,2.9,0v-0.6
		c-1.2,0-2,0-2-1.5V24.4c0.3,0,0.6-0.1,0.9-0.1c1.4,0,3.5,0.8,3.5,3.8c0,1.5-0.8,3.4-2.7,3.4c-0.3,0-0.5,0-0.8,0v0.7h1.1
		c2.4,0.1,4.5-1.8,4.7-4.2c0-3.4-3.2-4.3-5.4-4.3c-0.9,0-1.7,0-2.4,0c-1,0-1.9,0-2.9,0V24.3z"/>
	<path class="st0" d="M52,24.3c1.6,0,1.9,0.5,1.9,2.1v10.2c0,1.5-0.8,1.5-2,1.5v0.6c1.1,0,2.1,0,3.1,0s1.9,0,2.9,0v-0.6
		c-1.2,0-2,0-2-1.5V24.4c0.3,0,0.6-0.1,0.9-0.1c1.4,0,3.5,0.8,3.5,3.8c0,1.5-0.8,3.4-2.7,3.4c-0.3,0-0.5,0-0.8,0v0.7H58
		c2.5,0.1,4.5-1.8,4.7-4.2c0-3.4-3.2-4.3-5.4-4.3c-0.9,0-1.7,0-2.4,0c-1,0-1.9,0-2.9,0L52,24.3z"/>
	<path class="st0" d="M74.1,24.4h2.5c2.1,0,3.1,0.6,3.4,2.6l0.4-0.1v-3.2c-2.1,0-4.1,0-6.2,0c-1.4,0-2.9,0-4.3,0v0.6
		c1.7,0.1,2,0.1,2,1.9v9.5c0,2.1-0.2,2.4-2,2.4v0.6c1.6,0,3.2,0,4.8,0c2.1,0,4.3,0,6.4,0c0.2-1.1,0.5-2.2,0.9-3.3l-0.5-0.1
		c-0.8,2.3-1.8,2.6-3.9,2.7h-1.3c-2.1,0-2.2-0.6-2.2-3v-3.6h2.3c1.7,0,2.3,0,2.3,2.1h0.4c0-0.7-0.1-1.7-0.1-2.4s0-1.9,0.1-2.4h-0.4
		c-0.1,0.5-0.1,1.8-1.8,1.8h-2.8V24.4z"/>
	<path class="st0" d="M95.2,31.6c1.4,2.5,3.1,4.9,4.9,7.1c0.6,0,1.2,0,1.8,0s1.1,0,1.6,0v-0.6c-1,0-1.9-0.5-2.4-1.3
		c-0.9-1-2-2.8-3.9-5.6c1.7-0.4,2.9-1.9,3-3.7c0-1.5-0.9-3.8-5-3.8c-1.4,0-2.1,0-2.9,0c-1.1,0-2.1,0-3.3,0v0.6c1.1,0,2,0,2,1.5v10.9
		c0,1.2-0.9,1.5-2,1.4v0.6c1.1,0,2.1,0,3.1,0s1.9,0,2.9,0v-0.6c-1.1,0-2,0-2-1.5v-5L95.2,31.6z M98,27.6c0,1.5-1,3.3-3.7,3.3
		c-0.4,0-0.8,0-1.1-0.1v-6.3c0.4-0.1,0.9-0.1,1.3-0.1C97,24.4,98,25.8,98,27.6L98,27.6z"/>
	<path class="st0" d="M122.5,35.4l-0.5-0.1c-0.7,2.1-1.5,2.7-4,2.7c-3,0-3.4-0.7-3.4-2.3v-9.9c0-1.5,0.8-1.5,2-1.5v-0.6
		c-1.1,0-2.1,0-3.1,0s-1.9,0-3,0v0.6c1.1,0,2,0,2,1.5v10.9c0,1.2-0.9,1.5-2,1.4v0.6c1.9,0,3.8,0,5.7,0s3.6,0,5.4,0L122.5,35.4z"/>
	<path class="st0" d="M135.6,31l4.1-5.5c0.5-0.6,0.9-1.2,1.8-1.2v-0.6c-0.6,0-1.2,0-1.8,0c-0.8,0-1.6,0-2.5,0v0.6
		c1.1,0,1.5,0,1.5,0.6s-0.6,1.2-0.8,1.5l-2.8,3.9l-3-4.2c-0.3-0.4-0.6-0.8-0.7-1.3c0-0.5,0.9-0.5,1.2-0.5v-0.6c-0.9,0-1.7,0-2.6,0
		s-2.6,0-3,0v0.6c1.3,0.1,1.4,0.1,2,0.9l4.5,6.2v5.2c0,1.5-0.8,1.5-1.9,1.5v0.6c1,0,2,0,3,0s2,0,3.1,0v-0.6c-1.1,0-2,0-2-1.5
		L135.6,31z"/>
	<path class="st0" d="M204.9,31.4h2.6c1.9,0,1.9,0.5,2.2,1.9h0.4c0-0.6-0.1-1.6-0.1-2.3s0-1.9,0.1-2.3h-0.5
		c-0.3,1.5-0.4,1.8-2.2,1.8h-2.5v-6.1h2.5c2.3,0,3.2,0.6,3.5,2.4l0.5-0.1l-0.1-3c-1.9,0-3.9,0-5.8,0c-1.6,0-3.1,0-4.7,0v0.6
		c1.7,0.1,2,0.1,2,1.9v9.5c0,2.1-0.2,2.4-2,2.4v0.6c1.1,0,2.1,0,3.1,0s2,0,3,0v-0.6c-1.1,0-1.9,0-1.9-1.5L204.9,31.4z"/>
	<path class="st0" d="M219.3,31.3c0.1,4.3,3.6,7.6,7.9,7.5s7.6-3.6,7.5-7.9c-0.1-4.2-3.5-7.5-7.7-7.5
		C222.7,23.4,219.2,26.9,219.3,31.3C219.3,31.2,219.3,31.2,219.3,31.3z M221.6,30.6c0-3.9,2-6.6,5.1-6.6c3.7,0,5.6,4.4,5.6,7.7
		c0,3.9-2,6.6-5.1,6.6C223.5,38.3,221.6,33.9,221.6,30.6z"/>
	<path class="st0" d="M254.6,35.4l-0.5-0.1c-0.7,2.1-1.5,2.7-4,2.7c-3.1,0-3.4-0.7-3.4-2.3v-9.9c0-1.5,0.8-1.5,2-1.5v-0.6
		c-1.1,0-2.1,0-3.1,0s-1.9,0-3,0v0.6c1.1,0,2,0,2,1.5v10.9c0,1.2-0.9,1.5-2,1.4v0.6c1.9,0,3.8,0,5.7,0s3.6,0,5.4,0L254.6,35.4z"/>
	<path class="st0" d="M273.7,35.4l-0.5-0.1c-0.7,2.1-1.5,2.7-4,2.7c-3,0-3.4-0.7-3.4-2.3v-9.9c0-1.5,0.8-1.5,2-1.5v-0.6
		c-1.1,0-2.1,0-3,0s-2,0-3,0v0.6c1.1,0,2,0,2,1.5v10.9c0,1.2-0.9,1.5-2,1.4v0.6c1.9,0,3.8,0,5.7,0s3.6,0,5.5,0L273.7,35.4z"/>
	<path class="st0" d="M282.5,36.6c0,1.5-0.8,1.5-2,1.5v0.6c1.1,0,2.1,0,3.1,0s1.9,0,2.9,0v-0.6c-1.1,0-2,0-2-1.5V25.8
		c0-1.5,0.8-1.5,2-1.5v-0.6c-1.1,0-2.1,0-3,0s-2,0-3,0v0.6c1.1,0,2,0,2,1.5L282.5,36.6z"/>
	<path class="st0" d="M294.5,38.3c1,0.5,2.1,0.7,3.3,0.7c2.5,0,5-1.6,5-4.3c0-4.9-6.6-3.9-6.6-7.8c-0.1-1.4,0.9-2.6,2.3-2.7
		c0.1,0,0.2,0,0.3,0c1.4-0.1,2.7,1,2.8,2.4h0.5l-0.3-2.8c-0.9-0.2-1.7-0.3-2.6-0.3c-2.6,0-4.6,1.4-4.6,4.2c0,5.1,6.4,3.9,6.4,7.9
		c0,1.6-1.2,2.8-2.8,2.9c0,0-0.1,0-0.1,0c-1.8,0-3-1.6-3.4-3.2h-0.5L294.5,38.3z"/>
	<path class="st0" d="M310.8,23.7c0.7,0,0.8,0.2,0.8,0.9v4.2c0,0.6-0.3,0.6-0.8,0.6v0.2h1.3h1.2v-0.2c-0.5,0-0.8,0-0.8-0.6v-5
		c0.1,0,0.3,0,0.4,0c0.8,0,1.4,0.6,1.4,1.4c0,0.1,0,0.1,0,0.2c0,0.6-0.3,1.4-1.1,1.4c-0.1,0-0.2,0-0.3,0V27h0.5c1,0,1.8-0.8,1.9-1.8
		c0-1.4-1.3-1.8-2.2-1.8h-1c-0.4,0-0.8,0-1.2,0L310.8,23.7z"/>
	<path class="st0" d="M316.3,29.8c0.3,0,0.6-0.3,0.6-0.6c0-0.3-0.3-0.6-0.6-0.6c-0.3,0-0.6,0.3-0.6,0.6l0,0
		C315.7,29.5,315.9,29.8,316.3,29.8z"/>
	<path class="st0" d="M325.8,23.8c-0.7-0.3-1.4-0.4-2.1-0.5c-1.8-0.1-3.3,1.3-3.3,3.1c-0.1,1.7,1.2,3.2,2.9,3.3c0.1,0,0.3,0,0.4,0
		c0.7,0,1.3-0.2,1.9-0.5l0.2-1.3l-0.2,0c-0.1,0.9-0.9,1.5-1.7,1.5c-1.6-0.1-2.7-1.5-2.6-3c-0.2-1.4,0.8-2.6,2.2-2.8
		c0.1,0,0.2,0,0.3,0c0.9-0.1,1.8,0.5,1.9,1.4c0,0,0,0,0,0h0.2L325.8,23.8z"/>
	<path class="st0" d="M328.3,29.8c0.3,0,0.6-0.3,0.6-0.6c0-0.3-0.3-0.6-0.6-0.6c-0.3,0-0.6,0.3-0.6,0.6l0,0
		C327.8,29.5,328,29.8,328.3,29.8z"/>
	<path class="st0" d="M175.8,28.6c0-1.9-2.2-0.4-2.2-2.7c0.1-1.2,1.1-2.2,2.3-2.1c0.9,0,2.7,0.7,2.9,1.4c-0.1,2.7-0.6,5.6-2.5,7.7
		c-2.1,2.3-5,3.7-8.1,3.8c-1.8,0-3.6-0.7-4.9-2c-0.7-0.6-1.1-1.5-1.2-2.4c0.1-1,0.5-2,1.2-2.7l1.6-1.9l1.3-1.3L173,20
		c0.9-0.9,3-3,3-4.4c0-1-0.5-1.5-1.2-1.5c-0.7-0.1-1.3,0.4-1.3,1.1c0,0,0,0,0,0.1c0,0.3,0.3,1,0.3,1.5c0,1.5-2.9,3.7-3.8,4.8
		c-0.6-0.5-1.3-0.8-2-0.8c-4.4,0-8.7,5.6-8.7,9.8c-0.3,4.4,3.1,8.2,7.5,8.5c0.3,0,0.5,0,0.8,0c4.4,0.1,8.5-2.3,10.5-6.3
		c1.1-2.2,1.7-4.6,1.6-7c0.7,0.8,1.8,1.9,2.9,1.9c2,0,4.5-2,4.5-4.1c0.1-0.9-0.5-1.6-1.4-1.7c0,0,0,0,0,0c-0.6,0-1.1,0.4-1.1,1
		c0,1,0.9,1.4,0.9,2c0,0.7-0.5,1.2-1.1,1.3c0,0,0,0,0,0c-2.1,0-2.9-4.1-6.5-4.1c-2.5,0-5.8,2.6-5.8,5.3c-0.1,1.3,0.8,2.4,2,2.5
		c0,0,0,0,0.1,0C174.9,29.9,175.9,29.5,175.8,28.6L175.8,28.6z M166.1,22.7c0.7,0,1.4,0.5,1.4,1c0,0.1-0.1,0.3-0.2,0.4l-3.1,3.3
		c-1,1.1-2,2.2-2.8,3.4c-0.1-0.4-0.2-0.9-0.1-1.3C161.2,26.4,163.3,22.7,166.1,22.7z"/>
	<path class="st0" d="M19.2,24.4h2.5c2.1,0,3.1,0.6,3.4,2.6l0.4-0.1v-3.2c-2.1,0-4.1,0-6.2,0c-1.4,0-2.9,0-4.3,0v0.6
		c1.7,0.1,2,0.1,2,1.9v9.5c0,2.1-0.2,2.4-2,2.4v0.6c1.6,0,3.2,0,4.8,0c2.1,0,4.3,0,6.4,0c0.2-1.1,0.5-2.2,0.9-3.3l-0.5-0.1
		c-0.8,2.3-1.8,2.6-3.9,2.7h-1.3c-2.1,0-2.2-0.6-2.2-3v-3.6h2.3c1.7,0,2.3,0,2.3,2.1h0.4c0-0.7-0.1-1.7-0.1-2.4s0-1.9,0.1-2.4h-0.4
		c-0.1,0.5-0.1,1.8-1.8,1.8h-2.8V24.4z"/>
	<path class="st0" d="M34.1,24.3c1.6,0,1.9,0.5,1.9,2.1v10.2c0,1.5-0.8,1.5-2,1.5v0.6c1.1,0,2.1,0,3.1,0s1.9,0,2.9,0v-0.6
		c-1.2,0-2,0-2-1.5V24.4c0.3,0,0.6-0.1,0.9-0.1c1.4,0,3.5,0.8,3.5,3.8c0,1.5-0.8,3.4-2.7,3.4c-0.3,0-0.5,0-0.8,0v0.7h1.1
		c2.4,0.1,4.5-1.8,4.7-4.2c0-3.4-3.2-4.3-5.4-4.3c-0.9,0-1.7,0-2.4,0c-1,0-1.9,0-2.9,0V24.3z"/>
	<path class="st0" d="M52,24.3c1.6,0,1.9,0.5,1.9,2.1v10.2c0,1.5-0.8,1.5-2,1.5v0.6c1.1,0,2.1,0,3.1,0s1.9,0,2.9,0v-0.6
		c-1.2,0-2,0-2-1.5V24.4c0.3,0,0.6-0.1,0.9-0.1c1.4,0,3.5,0.8,3.5,3.8c0,1.5-0.8,3.4-2.7,3.4c-0.3,0-0.5,0-0.8,0v0.7H58
		c2.5,0.1,4.5-1.8,4.7-4.2c0-3.4-3.2-4.3-5.4-4.3c-0.9,0-1.7,0-2.4,0c-1,0-1.9,0-2.9,0L52,24.3z"/>
	<path class="st0" d="M74.1,24.4h2.5c2.1,0,3.1,0.6,3.4,2.6l0.4-0.1v-3.2c-2.1,0-4.1,0-6.2,0c-1.4,0-2.9,0-4.3,0v0.6
		c1.7,0.1,2,0.1,2,1.9v9.5c0,2.1-0.2,2.4-2,2.4v0.6c1.6,0,3.2,0,4.8,0c2.1,0,4.3,0,6.4,0c0.2-1.1,0.5-2.2,0.9-3.3l-0.5-0.1
		c-0.8,2.3-1.8,2.6-3.9,2.7h-1.3c-2.1,0-2.2-0.6-2.2-3v-3.6h2.3c1.7,0,2.3,0,2.3,2.1h0.4c0-0.7-0.1-1.7-0.1-2.4s0-1.9,0.1-2.4h-0.4
		c-0.1,0.5-0.1,1.8-1.8,1.8h-2.8V24.4z"/>
	<path class="st0" d="M95.2,31.6c1.4,2.5,3.1,4.9,4.9,7.1c0.6,0,1.2,0,1.8,0s1.1,0,1.6,0v-0.6c-1,0-1.9-0.5-2.4-1.3
		c-0.9-1-2-2.8-3.9-5.6c1.7-0.4,2.9-1.9,3-3.7c0-1.5-0.9-3.8-5-3.8c-1.4,0-2.1,0-2.9,0c-1.1,0-2.1,0-3.3,0v0.6c1.1,0,2,0,2,1.5v10.9
		c0,1.2-0.9,1.5-2,1.4v0.6c1.1,0,2.1,0,3.1,0s1.9,0,2.9,0v-0.6c-1.1,0-2,0-2-1.5v-5L95.2,31.6z M98,27.6c0,1.5-1,3.3-3.7,3.3
		c-0.4,0-0.8,0-1.1-0.1v-6.3c0.4-0.1,0.9-0.1,1.3-0.1C97,24.4,98,25.8,98,27.6L98,27.6z"/>
	<path class="st0" d="M122.5,35.4l-0.5-0.1c-0.7,2.1-1.5,2.7-4,2.7c-3,0-3.4-0.7-3.4-2.3v-9.9c0-1.5,0.8-1.5,2-1.5v-0.6
		c-1.1,0-2.1,0-3.1,0s-1.9,0-3,0v0.6c1.1,0,2,0,2,1.5v10.9c0,1.2-0.9,1.5-2,1.4v0.6c1.9,0,3.8,0,5.7,0s3.6,0,5.4,0L122.5,35.4z"/>
	<path class="st0" d="M135.6,31l4.1-5.5c0.5-0.6,0.9-1.2,1.8-1.2v-0.6c-0.6,0-1.2,0-1.8,0c-0.8,0-1.6,0-2.5,0v0.6
		c1.1,0,1.5,0,1.5,0.6s-0.6,1.2-0.8,1.5l-2.8,3.9l-3-4.2c-0.3-0.4-0.6-0.8-0.7-1.3c0-0.5,0.9-0.5,1.2-0.5v-0.6c-0.9,0-1.7,0-2.6,0
		s-2.6,0-3,0v0.6c1.3,0.1,1.4,0.1,2,0.9l4.5,6.2v5.2c0,1.5-0.8,1.5-1.9,1.5v0.6c1,0,2,0,3,0s2,0,3.1,0v-0.6c-1.1,0-2,0-2-1.5
		L135.6,31z"/>
	<path class="st0" d="M204.9,31.4h2.6c1.9,0,1.9,0.5,2.2,1.9h0.4c0-0.6-0.1-1.6-0.1-2.3s0-1.9,0.1-2.3h-0.5
		c-0.3,1.5-0.4,1.8-2.2,1.8h-2.5v-6.1h2.5c2.3,0,3.2,0.6,3.5,2.4l0.5-0.1l-0.1-3c-1.9,0-3.9,0-5.8,0c-1.6,0-3.1,0-4.7,0v0.6
		c1.7,0.1,2,0.1,2,1.9v9.5c0,2.1-0.2,2.4-2,2.4v0.6c1.1,0,2.1,0,3.1,0s2,0,3,0v-0.6c-1.1,0-1.9,0-1.9-1.5L204.9,31.4z"/>
	<path class="st0" d="M219.3,31.3c0.1,4.3,3.6,7.6,7.9,7.5s7.6-3.6,7.5-7.9c-0.1-4.2-3.5-7.5-7.7-7.5
		C222.7,23.4,219.2,26.9,219.3,31.3C219.3,31.2,219.3,31.2,219.3,31.3z M221.6,30.6c0-3.9,2-6.6,5.1-6.6c3.7,0,5.6,4.4,5.6,7.7
		c0,3.9-2,6.6-5.1,6.6C223.5,38.3,221.6,33.9,221.6,30.6z"/>
	<path class="st0" d="M254.6,35.4l-0.5-0.1c-0.7,2.1-1.5,2.7-4,2.7c-3.1,0-3.4-0.7-3.4-2.3v-9.9c0-1.5,0.8-1.5,2-1.5v-0.6
		c-1.1,0-2.1,0-3.1,0s-1.9,0-3,0v0.6c1.1,0,2,0,2,1.5v10.9c0,1.2-0.9,1.5-2,1.4v0.6c1.9,0,3.8,0,5.7,0s3.6,0,5.4,0L254.6,35.4z"/>
	<path class="st0" d="M273.7,35.4l-0.5-0.1c-0.7,2.1-1.5,2.7-4,2.7c-3,0-3.4-0.7-3.4-2.3v-9.9c0-1.5,0.8-1.5,2-1.5v-0.6
		c-1.1,0-2.1,0-3,0s-2,0-3,0v0.6c1.1,0,2,0,2,1.5v10.9c0,1.2-0.9,1.5-2,1.4v0.6c1.9,0,3.8,0,5.7,0s3.6,0,5.5,0L273.7,35.4z"/>
	<path class="st0" d="M282.5,36.6c0,1.5-0.8,1.5-2,1.5v0.6c1.1,0,2.1,0,3.1,0s1.9,0,2.9,0v-0.6c-1.1,0-2,0-2-1.5V25.8
		c0-1.5,0.8-1.5,2-1.5v-0.6c-1.1,0-2.1,0-3,0s-2,0-3,0v0.6c1.1,0,2,0,2,1.5L282.5,36.6z"/>
	<path class="st0" d="M294.5,38.3c1,0.5,2.1,0.7,3.3,0.7c2.5,0,5-1.6,5-4.3c0-4.9-6.6-3.9-6.6-7.8c-0.1-1.4,0.9-2.6,2.3-2.7
		c0.1,0,0.2,0,0.3,0c1.4-0.1,2.7,1,2.8,2.4h0.5l-0.3-2.8c-0.9-0.2-1.7-0.3-2.6-0.3c-2.6,0-4.6,1.4-4.6,4.2c0,5.1,6.4,3.9,6.4,7.9
		c0,1.6-1.2,2.8-2.8,2.9c0,0-0.1,0-0.1,0c-1.8,0-3-1.6-3.4-3.2h-0.5L294.5,38.3z"/>
	<path class="st0" d="M175.8,28.6c0-1.9-2.2-0.4-2.2-2.7c0.1-1.2,1.1-2.2,2.3-2.1c0.9,0,2.7,0.7,2.9,1.4c-0.1,2.7-0.6,5.6-2.5,7.7
		c-2.1,2.3-5,3.7-8.1,3.8c-1.8,0-3.6-0.7-4.9-2c-0.7-0.6-1.1-1.5-1.2-2.4c0.1-1,0.5-2,1.2-2.7l1.6-1.9l1.3-1.3L173,20
		c0.9-0.9,3-3,3-4.4c0-1-0.5-1.5-1.2-1.5c-0.7-0.1-1.3,0.4-1.3,1.1c0,0,0,0,0,0.1c0,0.3,0.3,1,0.3,1.5c0,1.5-2.9,3.7-3.8,4.8
		c-0.6-0.5-1.3-0.8-2-0.8c-4.4,0-8.7,5.6-8.7,9.8c-0.3,4.4,3.1,8.2,7.5,8.5c0.3,0,0.5,0,0.8,0c4.4,0.1,8.5-2.3,10.5-6.3
		c1.1-2.2,1.7-4.6,1.6-7c0.7,0.8,1.8,1.9,2.9,1.9c2,0,4.5-2,4.5-4.1c0.1-0.9-0.5-1.6-1.4-1.7c0,0,0,0,0,0c-0.6,0-1.1,0.4-1.1,1
		c0,1,0.9,1.4,0.9,2c0,0.7-0.5,1.2-1.1,1.3c0,0,0,0,0,0c-2.1,0-2.9-4.1-6.5-4.1c-2.5,0-5.8,2.6-5.8,5.3c-0.1,1.3,0.8,2.4,2,2.5
		c0,0,0,0,0.1,0C174.9,29.9,175.9,29.5,175.8,28.6L175.8,28.6z M166.1,22.7c0.7,0,1.4,0.5,1.4,1c0,0.1-0.1,0.3-0.2,0.4l-3.1,3.3
		c-1,1.1-2,2.2-2.8,3.4c-0.1-0.4-0.2-0.9-0.1-1.3C161.2,26.4,163.3,22.7,166.1,22.7z"/>
</g>
</svg>
